<svg xmlns="http://www.w3.org/2000/svg" width="85" height="17" viewBox="0 0 85 17">
    <path fill="#FFF" fill-rule="evenodd" d="M64.535 3.1c-2.064-.008-3.327 1.422-3.607 3.933l7.302.03C68.09 4.91 67.08 3.11 64.535 3.1zm6.706 6.518l-10.384-.042c.317 3.02 2.018 4.314 3.932 4.322 1.318.005 2.367-.469 3.418-1.241l1.816 1.98c-1.382 1.31-3.03 2.052-5.424 2.042-3.681-.015-6.78-2.989-6.758-8.193.022-5.324 2.846-8.182 6.915-8.165 4.46.018 6.598 3.645 6.58 7.892-.002.568-.064 1.076-.095 1.405zm-31.81-.32l-10.385-.043c.316 3.021 2.017 4.315 3.931 4.323 1.317.005 2.366-.469 3.416-1.241l1.818 1.98c-1.381 1.31-3.031 2.051-5.425 2.041-3.68-.015-6.779-2.988-6.758-8.193.023-5.323 2.846-8.181 6.916-8.165 4.46.019 6.598 3.646 6.58 7.893-.002.567-.063 1.076-.093 1.405zM32.724 2.78c-2.065-.008-3.328 1.421-3.607 3.932l7.3.03c-.14-2.152-1.15-3.951-3.693-3.962zm51.463.505c-.9-.011-1.634-.014-2.662-.019-2.344-.01-2.846 1.12-2.857 3.794l-.04 9.62-3.114-.03.049-11.765C75.58.87 79.183.315 80.755.32c1.27.005 2.545.01 3.435.019l-.003 2.945zM55.27.335L50.44 8.646 55.202 17l-3.193-.013-3.177-5.574-3.224 5.547-3.191-.013L52.077.321l3.193.013zM45.632.012l1.605 2.733-1.62 2.707L42.417 0l3.215.013zm-42.707 0l2.216 6.652-1.843 3.278L0 0l2.925.012zM20.79.036l2.99.012-9.053 16.63-3.312-9.878-5.4 9.842-1.194-3.235L12.12 0l3.313 9.877 5.357-9.84z"/>
</svg>
